<svg id="Camada_1" data-name="Camada 1" xmlns="http://www.w3.org/2000/svg" viewBox="0 0 30 30"><defs><style>.cls-1{fill:#040006;}</style></defs><title>Documento</title><path class="cls-1" d="M24.52,8.31l-5-5A1.05,1.05,0,0,0,18.8,3H6.19a1,1,0,0,0-1,1V26a1,1,0,0,0,1,1H23.81a1,1,0,0,0,1-1V9A1,1,0,0,0,24.52,8.31ZM22.81,25H7.19V5H18.38l4.43,4.43Z"/><path class="cls-1" d="M10.26,9.88h4.18a.75.75,0,0,0,0-1.5H10.26a.75.75,0,0,0,0,1.5Z"/><path class="cls-1" d="M20,14.37h-9.7a.75.75,0,0,0,0,1.5H20a.75.75,0,0,0,0-1.5Z"/><path class="cls-1" d="M20,17.41h-9.7a.75.75,0,0,0,0,1.5H20a.75.75,0,0,0,0-1.5Z"/><path class="cls-1" d="M20,20.44h-9.7a.75.75,0,0,0,0,1.5H20a.75.75,0,0,0,0-1.5Z"/><path class="cls-1" d="M9.51,12.09a.76.76,0,0,0,.75.75H20a.75.75,0,0,0,0-1.5h-9.7A.75.75,0,0,0,9.51,12.09Z"/></svg>