<svg id="Camada_1" data-name="Camada 1" xmlns="http://www.w3.org/2000/svg" viewBox="0 0 30 30"><defs><style>.cls-1{fill:#040006;}</style></defs><title>folder</title><path class="cls-1" d="M29.07,14.91a2.16,2.16,0,0,0-1.79-.67h-1V8.47A1.05,1.05,0,0,0,26,7.76l-5.05-5a1,1,0,0,0-.71-.3H7.46a1,1,0,0,0-1,1v.2A2.13,2.13,0,0,0,5.24,4a1.88,1.88,0,0,0-.72,1.4V6.76H4.42A2,2,0,0,0,2.7,9V20.87s0,.08,0,.12c-.84,1.78-1.56,3.31-1.8,3.74a1.9,1.9,0,0,0-.15,1.85,1.94,1.94,0,0,0,1.41,1H22.4a2.1,2.1,0,0,0,2.24-1.11h0c0-.08,3.93-8.41,4.59-9.76a.61.61,0,0,0,.05-.12A1.71,1.71,0,0,0,29.07,14.91ZM8.46,4.42H19.81l4.46,4.47v5.34l-15.81,0ZM22.87,25.53a1.74,1.74,0,0,1-.45,0H2.74c.76-1.46,4-8.35,4.42-9.38a1.49,1.49,0,0,1,.34,0l19.73.06C26.26,18.27,23.28,24.66,22.87,25.53Z"/><path class="cls-1" d="M19.93,9.62h-9.8a.75.75,0,0,0,0,1.5h9.8a.75.75,0,0,0,0-1.5Z"/><path class="cls-1" d="M10.13,8.17h4.26a.75.75,0,0,0,0-1.5H10.13a.75.75,0,0,0,0,1.5Z"/><path class="cls-1" d="M19.93,12.62h-9.8a.75.75,0,0,0,0,1.5h9.8a.75.75,0,0,0,0-1.5Z"/></svg>