<svg id="Camada_1" data-name="Camada 1" xmlns="http://www.w3.org/2000/svg" viewBox="0 0 24 24"><defs><style>.cls-1{fill:#040006;}</style></defs><title>home-icon</title><path class="cls-1" d="M21.58,13l-8.8-9.91a1.09,1.09,0,0,0-1.56,0L2.42,13A1,1,0,0,0,4,14.4l1.42-1.6v7.39a1,1,0,0,0,1,1H17.58a1,1,0,0,0,1-1V12.8L20,14.4A1,1,0,0,0,21.58,13Zm-5-2.28v8.41H7.46V10.74a.79.79,0,0,0,0-.22L12,5.36h0l4.59,5.16A.79.79,0,0,0,16.54,10.74Z"/><path class="cls-1" d="M21.58,13l-8.8-9.91a1.09,1.09,0,0,0-1.56,0L2.42,13A1,1,0,0,0,4,14.4l1.42-1.6v7.39a1,1,0,0,0,1,1H17.58a1,1,0,0,0,1-1V12.8L20,14.4A1,1,0,0,0,21.58,13Zm-5-2.28v8.41H7.46V10.74a.79.79,0,0,0,0-.22L12,5.36h0l4.59,5.16A.79.79,0,0,0,16.54,10.74Z"/></svg>