<svg id="Camada_1" data-name="Camada 1" xmlns="http://www.w3.org/2000/svg" viewBox="0 0 30 30"><defs><style>.cls-1{fill:#040006;}</style></defs><title>Icon</title><path class="cls-1" d="M27.12,8.31l-5-5A1,1,0,0,0,21.4,3H8.78a1,1,0,0,0-1,1V17.4L2.59,22l5.19,3.77V26a1,1,0,0,0,1,1H26.41a1,1,0,0,0,1-1V9A1,1,0,0,0,27.12,8.31ZM9.78,25V22.63c1-.09,2.45.32,3.83,2.37Zm15.63,0H14a8.53,8.53,0,0,0-.66-3.06h9.24a.75.75,0,0,0,0-1.5h-9.7a.72.72,0,0,0-.41.14A5,5,0,0,0,9.78,19V5H21l4.43,4.43Z"/><path class="cls-1" d="M12.86,9.88H17a.75.75,0,0,0,0-1.5H12.86a.75.75,0,0,0,0,1.5Z"/><path class="cls-1" d="M22.56,14.37h-9.7a.75.75,0,0,0,0,1.5h9.7a.75.75,0,0,0,0-1.5Z"/><path class="cls-1" d="M22.56,17.41h-9.7a.75.75,0,0,0,0,1.5h9.7a.75.75,0,0,0,0-1.5Z"/><path class="cls-1" d="M12.11,12.09a.75.75,0,0,0,.75.75h9.7a.75.75,0,0,0,0-1.5h-9.7A.74.74,0,0,0,12.11,12.09Z"/></svg>