<svg id="Camada_1" data-name="Camada 1" xmlns="http://www.w3.org/2000/svg" viewBox="0 0 35 35"><defs><style>.cls-1{fill:#211915;}</style></defs><title>qr-icon</title><path class="cls-1" d="M12.93,5.15H9.07A3.93,3.93,0,0,0,5.15,9.07v3.86a3.93,3.93,0,0,0,3.92,3.92h3.86a3.93,3.93,0,0,0,3.92-3.92V9.07A3.93,3.93,0,0,0,12.93,5.15Zm1.42,7.78a1.41,1.41,0,0,1-1.42,1.42H9.07a1.41,1.41,0,0,1-1.42-1.42V9.07A1.41,1.41,0,0,1,9.07,7.65h3.86a1.41,1.41,0,0,1,1.42,1.42Z"/><rect class="cls-1" x="8.8" y="8.8" width="4.4" height="4.4" rx="1.41"/><path class="cls-1" d="M3.65,5.07A1.41,1.41,0,0,1,5.07,3.65H7V1.15H5.07A3.93,3.93,0,0,0,1.15,5.07V7.34h2.5Z"/><path class="cls-1" d="M22.07,16.85h3.86a3.93,3.93,0,0,0,3.92-3.92V9.07a3.93,3.93,0,0,0-3.92-3.92H22.07a3.93,3.93,0,0,0-3.92,3.92v3.86A3.93,3.93,0,0,0,22.07,16.85ZM20.65,9.07a1.41,1.41,0,0,1,1.42-1.42h3.86a1.41,1.41,0,0,1,1.42,1.42v3.86a1.41,1.41,0,0,1-1.42,1.42H22.07a1.41,1.41,0,0,1-1.42-1.42Z"/><rect class="cls-1" x="21.8" y="8.8" width="4.4" height="4.4" rx="1.41"/><path class="cls-1" d="M29.93,1.15H28v2.5h1.93a1.41,1.41,0,0,1,1.42,1.42V7.34h2.5V5.07A3.93,3.93,0,0,0,29.93,1.15Z"/><path class="cls-1" d="M12.93,18.15H9.07a3.93,3.93,0,0,0-3.92,3.92v3.86a3.93,3.93,0,0,0,3.92,3.92h3.86a3.93,3.93,0,0,0,3.92-3.92V22.07A3.93,3.93,0,0,0,12.93,18.15Zm1.42,7.78a1.41,1.41,0,0,1-1.42,1.42H9.07a1.41,1.41,0,0,1-1.42-1.42V22.07a1.41,1.41,0,0,1,1.42-1.42h3.86a1.41,1.41,0,0,1,1.42,1.42Z"/><rect class="cls-1" x="8.8" y="21.8" width="4.4" height="4.4" rx="1.41"/><path class="cls-1" d="M3.65,29.93V27.66H1.15v2.27a3.93,3.93,0,0,0,3.92,3.92H7v-2.5H5.07A1.41,1.41,0,0,1,3.65,29.93Z"/><path class="cls-1" d="M23.79,18.3H22.21a3.91,3.91,0,0,0-3.91,3.91v1.58a3.91,3.91,0,0,0,3.91,3.91h1.58a3.91,3.91,0,0,0,3.91-3.91V22.21A3.91,3.91,0,0,0,23.79,18.3Zm1.41,5.49a1.41,1.41,0,0,1-1.41,1.41H22.21a1.41,1.41,0,0,1-1.41-1.41V22.21a1.41,1.41,0,0,1,1.41-1.41h1.58a1.41,1.41,0,0,1,1.41,1.41Z"/><path class="cls-1" d="M31.35,29.93a1.41,1.41,0,0,1-1.42,1.42H28v2.5h1.93a3.93,3.93,0,0,0,3.92-3.92V27.66h-2.5Z"/></svg>