<svg id="Camada_1" data-name="Camada 1" xmlns="http://www.w3.org/2000/svg" viewBox="0 0 30 30"><defs><style>.cls-1{fill:#040006;}</style></defs><title>settings</title><path class="cls-1" d="M3.53,22.55a2.78,2.78,0,0,0,2,4.74h0a2.8,2.8,0,0,0,2-.81l6.92-6.93-3.93-3.92Zm2.72,2.73a1.07,1.07,0,0,1-.76.31,1.08,1.08,0,0,1-.76-.31,1.1,1.1,0,0,1,0-1.53L10.45,18,12,19.55Z"/><path class="cls-1" d="M22.4,10.06,25.28,8.6l1.86-3.55-2.23-2.2L21.34,4.68l-1.5,2.83L16,11.33l2.57,2.53ZM21.13,8.63,22.59,6l2-1,.46.46-1,2L21.51,8.61l-3,2.86-.15-.14Z"/><path class="cls-1" d="M22.5,17l-.36,0a5.14,5.14,0,0,0-1.24.16L12.83,9.1A5.59,5.59,0,0,0,13,7.76l0-.25A5.06,5.06,0,0,0,11.26,4a5.08,5.08,0,0,0-5.62-.77l-1.07.52L8.25,7.44a.46.46,0,0,1,.13.2A.58.58,0,0,1,8,8.38a.56.56,0,0,1-.59-.12L3.75,4.57,3.22,5.64a5.1,5.1,0,0,0,2.35,6.81A5,5,0,0,0,7.48,13l.38,0a5.06,5.06,0,0,0,1.23-.16l8.07,8.07A5.58,5.58,0,0,0,17,22.23l0,.26a5.15,5.15,0,0,0,5.11,4.8,5.24,5.24,0,0,0,2.21-.52l1.07-.52-3.68-3.69a.6.6,0,0,1-.14-.21.57.57,0,0,1,.34-.74.5.5,0,0,1,.19,0,.64.64,0,0,1,.24.06.39.39,0,0,1,.19.12l3.69,3.69.53-1.07A5.11,5.11,0,0,0,22.5,17Zm3.08,5.32-1.82-1.82A2.22,2.22,0,0,0,23,20a2.38,2.38,0,0,0-.81-.16,3.05,3.05,0,0,0-.8.14,2.29,2.29,0,0,0-.82,3.75l1.82,1.82h-.21a3.44,3.44,0,0,1-3.41-3.24l0-.2A3.74,3.74,0,0,1,18.92,21l.2-.51L9.54,10.87l-.51.2a3.67,3.67,0,0,1-1.1.23l-.32,0a3.37,3.37,0,0,1-1.29-.33,3.41,3.41,0,0,1-1.9-3.29L6.24,9.47A2.3,2.3,0,0,0,8.61,10,2.27,2.27,0,0,0,10,7.07a2.08,2.08,0,0,0-.52-.83L7.64,4.42h0a3.32,3.32,0,0,1,2.45.85,3.42,3.42,0,0,1,1.14,2.38l0,.19A3.44,3.44,0,0,1,11.07,9l-.2.52,9.58,9.58.52-.2a3.35,3.35,0,0,1,1.09-.22l.32,0a3.42,3.42,0,0,1,3.21,3.41A1.48,1.48,0,0,1,25.58,22.36Z"/></svg>