<svg id="Camada_1" data-name="Camada 1" xmlns="http://www.w3.org/2000/svg" viewBox="0 0 24 24"><defs><style>.cls-1{fill:#060007;}</style></defs><title>cart-icon</title><path class="cls-1" d="M21.38,5.34A1,1,0,0,0,20.62,5H6.81l-.2-1.16a1,1,0,0,0-1-.84H3.37a1,1,0,0,0,0,2h1.4L6.63,16.16c0,.05,0,.09,0,.13a.88.88,0,0,0,.05.15l.12.18.1.11.19.13.11.06a1,1,0,0,0,.37.08h11a1,1,0,1,0,0-2H8.47l-.16-1H19.62a1,1,0,0,0,1-.86l1-7A1,1,0,0,0,21.38,5.34ZM10.62,12H8l-.33-2h3Zm0-3h-3L7.48,9,7.14,7h3.49Zm4,3h-3V10h3Zm0-3h-3V7h3Zm4.13,3H15.63V10h3.42Zm.43-3H15.62V7h3.85Z"/><circle class="cls-1" cx="9.12" cy="19.5" r="1.5"/><circle class="cls-1" cx="18.12" cy="19.5" r="1.5"/></svg>