<?xml version="1.0" encoding="utf-8"?>
<!-- Generator: Adobe Illustrator 23.0.3, SVG Export Plug-In . SVG Version: 6.00 Build 0)  -->
<svg version="1.1" id="Camada_1" xmlns="http://www.w3.org/2000/svg" xmlns:xlink="http://www.w3.org/1999/xlink" x="0px" y="0px"
	 viewBox="0 0 24 24" style="enable-background:new 0 0 24 24;" xml:space="preserve">
<style type="text/css">
	.st0{opacity:0.54;fill:#060007;}
</style>
<title>cart-icon</title>
<path class="st0" d="M19.8,6.5c-0.2-0.2-0.4-0.3-0.6-0.3H7.7l-0.2-1C7.5,4.8,7.1,4.5,6.7,4.5H4.8C4.4,4.5,4,4.9,4,5.4
	c0,0.5,0.4,0.8,0.8,0.8H6l1.5,9.3c0,0,0,0.1,0,0.1c0,0,0,0.1,0,0.1l0.1,0.1l0.1,0.1L7.9,16l0.1,0c0.1,0,0.2,0.1,0.3,0.1h9.1
	c0.5,0,0.8-0.4,0.8-0.8c0-0.5-0.4-0.8-0.8-0.8H9.1l-0.1-0.8h9.4c0.4,0,0.8-0.3,0.8-0.7L20,7.1C20,6.9,20,6.6,19.8,6.5z M10.9,12H8.7
	l-0.3-1.7h2.5L10.9,12z M10.9,9.5H8.4H8.2L8,7.8h2.9L10.9,9.5z M14.2,12h-2.5v-1.7h2.5V12z M14.2,9.5h-2.5V7.8h2.5V9.5z M17.6,12H15
	v-1.7h2.8L17.6,12z M18,9.5h-3V7.8h3.2L18,9.5z"/>
<circle class="st0" cx="9.6" cy="18.2" r="1.2"/>
<circle class="st0" cx="17.1" cy="18.2" r="1.2"/>
</svg>
